<?xml version="1.0" encoding="utf-8"?>
<!-- Generator: Adobe Illustrator 16.0.0, SVG Export Plug-In . SVG Version: 6.00 Build 0)  -->
<!DOCTYPE svg PUBLIC "-//W3C//DTD SVG 1.1//EN" "http://www.w3.org/Graphics/SVG/1.1/DTD/svg11.dtd">
<svg version="1.1" id="Layer_1" xmlns="http://www.w3.org/2000/svg" xmlns:xlink="http://www.w3.org/1999/xlink" x="0px" y="0px"
	 width="477.25px" height="21.583px" viewBox="0 0 477.25 21.583" enable-background="new 0 0 477.25 21.583" xml:space="preserve">
<g>
	<g>
		<g>
			<path fill="#959A9D" d="M223.961,0.956C167.116,1.209,110.139,0.579,54.922,0.565C36.654,0.564,18.46,0.563,1,0.562H0.091v0.909
				c0.001,6.538,0.003,12.814,0.004,19v0.904H1c153.743-0.039,300.679-0.268,440.376-0.021c9.357,0.013,23.563,0.032,34.35,0.047
				l0.933,0.001l-0.001-0.933c-0.004-3.438-0.007-6.071-0.009-8.425c-0.053-22.445-0.883-4.08-1.146,8.425l0.224-0.224
				c-1.326-0.022-2.584-0.043-3.722-0.063c-74.566-0.899-156.065-0.733-221.99-0.438C166.667,20.116,83.58,20.083,1,19.965
				l0.506,0.506c0.01-6.342,0.019-12.682,0.029-19L1,2.005c151.11,0.238,300.529,0.683,446.991-0.609
				c8.14-0.072,42.566-0.362,20.411-0.702c-22.683-0.348-67.568-0.104-77.395-0.069C337.318,0.731,281.071,0.843,223.961,0.956z
				 M244.312,1.214c-1.057-0.126,6.825-0.393,8.164-0.232C253.532,1.107,245.65,1.375,244.312,1.214z"/>
		</g>
	</g>
</g>
<g>
	<rect x="3" y="3" fill="#83888C" width="180" height="17"/>
	<g>
		<g>
			<path fill="#83888C" d="M82.618,1.66C59.937,2.167,37.202,0.905,15.17,0.878C11.11,0.875,7.06,0.872,3.073,0.87l-1.82-0.002
				l0.001,1.821c0.003,5.8,0.007,11.491,0.01,17L1.264,21.5l1.808-0.002c61.346-0.076,119.974-0.535,175.714-0.041
				c1.167,0.01,2.524,0.022,4.286,0.039l1.788,0.016l0.019-1.822c0.041-4.023,0.081-9.21,0.04-12.78
				c-0.116-9.904-2.135,0.107-2.42,4.846c-0.14,2.602-0.279,5.223-0.424,7.934c0.328-0.33,0.658-0.658,0.998-0.999
				c-27.455-1.315-56.637-0.991-80.642-0.455c-33.256,0.743-66.409,0.679-99.358,0.442l1.013,1.012
				c0.045-5.675,0.09-11.344,0.135-17L3.074,3.836C60.159,4.317,116.614,4.99,172.008,2.541c3.248-0.144,16.984-0.725,8.144-1.405
				c-9.05-0.695-26.96-0.208-30.881-0.138C127.849,1.373,105.404,1.151,82.618,1.66z M90.738,2.176
				c-0.422-0.253,2.724-0.786,3.258-0.465C94.417,1.963,91.272,2.497,90.738,2.176z"/>
		</g>
	</g>
</g>
</svg>
