<?xml version="1.0" encoding="utf-8"?>
<!-- Generator: Adobe Illustrator 16.0.0, SVG Export Plug-In . SVG Version: 6.00 Build 0)  -->
<!DOCTYPE svg PUBLIC "-//W3C//DTD SVG 1.1//EN" "http://www.w3.org/Graphics/SVG/1.1/DTD/svg11.dtd">
<svg version="1.1" id="Layer_1" xmlns="http://www.w3.org/2000/svg" xmlns:xlink="http://www.w3.org/1999/xlink" x="0px" y="0px"
	 width="351.375px" height="2.625px" viewBox="0 0 351.375 2.625" enable-background="new 0 0 351.375 2.625" xml:space="preserve">
<g>
	<g>
		<g>
			<path fill="#959A9D" d="M90.237,1.936c20.148-0.253,40.345,0.377,59.916,0.391c63.513,0.046,124.454-0.309,181.938-0.021
				c4.131,0.021,10.926,0.066,15.162,0.039c8.798-0.058-0.097-1.067-4.307-1.21c-26.43-0.9-55.316-0.733-78.684-0.439
				C178.385,1.773,93.285-0.558,10.83,1.494C7.945,1.566-4.258,1.855,3.595,2.195c8.04,0.349,23.95,0.104,27.433,0.07
				C50.058,2.078,69.996,2.189,90.237,1.936z M83.024,1.677c0.375,0.126-2.419,0.394-2.894,0.232
				C79.756,1.783,82.55,1.516,83.024,1.677z"/>
		</g>
	</g>
</g>
</svg>
