<?xml version="1.0" encoding="utf-8"?>
<!-- Generator: Adobe Illustrator 16.0.0, SVG Export Plug-In . SVG Version: 6.00 Build 0)  -->
<!DOCTYPE svg PUBLIC "-//W3C//DTD SVG 1.1//EN" "http://www.w3.org/Graphics/SVG/1.1/DTD/svg11.dtd">
<svg version="1.1" id="Layer_1" xmlns="http://www.w3.org/2000/svg" xmlns:xlink="http://www.w3.org/1999/xlink" x="0px" y="0px"
	 width="40.333px" height="40.167px" viewBox="0 0 40.333 40.167" enable-background="new 0 0 40.333 40.167" xml:space="preserve">
<g>
	<g>
		<g>
			<path fill-rule="evenodd" clip-rule="evenodd" fill="#82888C" d="M22.133,26.996c0.234,3.667-0.037,7.34-0.284,10.966
				c0.564-0.285,1.123-0.567,1.683-0.85c-1.721-1.458-3.43-2.896-5.197-4.211c-2.064-1.522-4.117-3.036-6.151-4.536l-0.364-0.269
				l-0.442,0.003c-3.107,0.02-6.181,0.039-9.221,0.059c0.441,0.441,0.87,0.87,1.299,1.299C3.413,24.158,3.371,18.963,3.33,13.896
				c-0.409,0.409-0.791,0.791-1.173,1.173c3.193-0.003,6.226-0.006,9.221-0.009l0.526,0l0.35-0.397
				c2.745-3.114,5.363-6.036,7.984-8.884c0.825-0.896,2.193-2.358,2.983-3.324c1.641-2.008-1.224-1.033-2.201-0.24
				c-3.918,3.172-7.54,6.996-10.716,10.743c0.363-0.165,0.725-0.329,1.074-0.487c-2.84,0.043-5.544,0.177-8.035,0.337l-1.186,0.072
				l-1.073,0.065l0.055,0.952c0.301,5.2,0.393,10.39,0.378,15.561l-0.002,0.638l0.642,0.002c3.08,0.009,6.155,0.056,9.221,0.118
				l-0.45-0.147c3.79,2.935,7.568,5.861,11.329,8.773l1.696,1.314l0.045-2.193c0.236-11.586,0.228-23.055-1.204-34.355
				c-0.108-0.85-0.543-4.444-1.053-2.131c-0.521,2.368-0.157,7.054-0.104,8.08C21.917,15.161,21.751,21.034,22.133,26.996z
				 M22.52,24.871c-0.19,0.11-0.59-0.712-0.35-0.852C22.36,23.909,22.76,24.731,22.52,24.871z"/>
		</g>
	</g>
</g>
<g>
	<g>
		<g>
			<path fill-rule="evenodd" clip-rule="evenodd" fill="#82888C" d="M30.78,14.654c0.198,0.218,0.284,0.484,0.313,0.763
				c0.025,0.279,0.041,0.556-0.023,0.843c-0.103,0.573-0.267,1.107-0.271,1.623c0.038,1.665-0.116,3.349-0.548,4.954
				c-0.438,1.615-1.137,3.093-2.165,4.305c-0.16,0.184-0.438,0.478-0.541,0.706c-0.214,0.477,1.335,0.885,1.649,0.798
				c0.495-0.14,0.915-0.318,1.265-0.586c0.349-0.288,0.638-0.632,0.874-0.999c0.427-0.745,0.643-1.549,0.678-2.314
				c0.201-2.73,1.083-5.1,1.126-7.843c-0.002-1.344-0.274-2.74-0.979-3.931c-0.678-1.194-1.906-2.111-3.315-2.279
				c-0.213-0.035-0.969-0.103-0.953,0.575c-0.003,0.339,0.186,0.548,0.411,0.689c0.208,0.159,0.436,0.272,0.517,0.316
				C29.67,12.807,30.084,13.765,30.78,14.654z M31,14.144c-0.169,0.089-0.59,0.102-0.378-0.015
				C30.788,14.033,31.212,14.026,31,14.144z"/>
		</g>
	</g>
</g>
<g>
	<g>
		<g>
			<path fill-rule="evenodd" clip-rule="evenodd" fill="#82888C" d="M37.387,11.424c0.286,0.426,0.433,0.911,0.512,1.409
				c0.075,0.499,0.17,0.989,0.13,1.5c-0.023,0.5-0.046,1.002-0.069,1.495c-0.017,0.488-0.088,0.977-0.059,1.451
				c0.209,6.151-1.55,12.391-4.982,16.956c-0.264,0.338-0.71,0.885-0.919,1.271c-0.433,0.805,1.338,0.881,1.757,0.638
				c0.657-0.388,1.253-0.813,1.761-1.342c0.498-0.552,0.938-1.162,1.322-1.792c0.383-0.63,0.624-1.3,0.869-1.946
				c0.251-0.643,0.404-1.299,0.516-1.925c0.497-2.266,0.939-4.471,1.385-6.682c0.405-2.22,0.649-4.483,0.593-6.78
				c-0.105-2.287-0.629-4.603-1.729-6.643c-1.064-2.049-2.894-3.71-5.008-4.47c-0.312-0.118-1.487-0.536-1.202,0.367
				c0.136,0.454,0.53,0.835,0.943,1.132c0.381,0.328,0.748,0.609,0.884,0.708C35.51,7.938,36.402,9.674,37.387,11.424z
				 M37.492,10.611c-0.163,0.105-0.629,0.001-0.424-0.136C37.227,10.364,37.698,10.474,37.492,10.611z"/>
		</g>
	</g>
</g>
</svg>
