<?xml version="1.0" encoding="utf-8"?>
<!-- Generator: Adobe Illustrator 16.0.0, SVG Export Plug-In . SVG Version: 6.00 Build 0)  -->
<!DOCTYPE svg PUBLIC "-//W3C//DTD SVG 1.1//EN" "http://www.w3.org/Graphics/SVG/1.1/DTD/svg11.dtd">
<svg version="1.1" id="Layer_1" xmlns="http://www.w3.org/2000/svg" xmlns:xlink="http://www.w3.org/1999/xlink" x="0px" y="0px"
	 width="40.333px" height="40.167px" viewBox="0 0 40.333 40.167" enable-background="new 0 0 40.333 40.167" xml:space="preserve">
<g>
	<g>
		<g>
			<g>
				<path fill-rule="evenodd" clip-rule="evenodd" fill="#82888C" d="M34.75,5.538c-0.372,0.91-1.685,0.884-2.321,1.492
					c-2.07,1.972-3.634,4.287-5.767,5.813c-0.154,0.109-0.418,0.278-0.523,0.441c-0.219,0.341,1.135,1.129,1.42,1.146
					c1.796,0.114,2.538-0.982,2.97-2.038c1.588-3.878,6.768-4.114,7.216-8.914c0.015-0.168,0.096-0.864-0.515-0.975
					c-0.625-0.113-0.873,0.651-0.946,0.8C35.876,4.107,35.125,4.625,34.75,5.538z M35.253,5.582
					c-0.146-0.122-0.34-0.493-0.154-0.338C35.245,5.365,35.439,5.737,35.253,5.582z"/>
			</g>
			<g>
				<polygon fill="#82888C" points="38.753,9.134 37.628,9.094 37.832,3.551 32.288,3.753 32.248,2.628 39,2.383 				"/>
			</g>
		</g>
	</g>
	<g>
		<g>
			<g>
				<path fill-rule="evenodd" clip-rule="evenodd" fill="#82888C" d="M24.792,14.773c-2.418,0.38-4.841-0.566-7.19-0.587
					c-1.047,0-2.089,0.001-3.102,0.001l-1.382,0l0.024,1.357c0.063,3.429,0.124,6.765,0.183,10l0.021,1.19l1.153-0.016
					c3.003-0.039,5.902-0.024,8.731,0.151c0.496,0.031,1.312,0.1,1.819,0.059c1.057-0.087-0.011-1.602-0.517-1.815
					c-3.171-1.351-6.638-1.101-9.442-0.659L14.5,24.542l1.002,1.002c-0.464-3.347-0.412-6.683-0.244-10L14.5,16.304
					c3.693,0.187,7.364,0.517,11,0.437l-1.196-1.196c0.065,2.965,0.401,5.906,1.308,8.82c0.108,0.347,0.543,1.811,1.053,0.868
					c0.521-0.965,0.157-2.874,0.104-3.292c-0.254-2.059-0.144-4.207-0.399-6.396l-0.113-0.974L25.5,14.675
					C25.269,14.707,25.032,14.74,24.792,14.773z M25.885,15.702c0.19-0.045,0.59,0.29,0.35,0.347
					C26.045,16.094,25.645,15.758,25.885,15.702z"/>
			</g>
		</g>
	</g>
	<g>
		<g>
			<g>
				<path fill-rule="evenodd" clip-rule="evenodd" fill="#82888C" d="M36.842,35.134c-0.91-0.372-0.884-1.685-1.492-2.321
					c-1.972-2.07-4.287-3.634-5.812-5.767c-0.109-0.154-0.278-0.418-0.442-0.523c-0.341-0.219-1.129,1.135-1.146,1.42
					c-0.114,1.796,0.982,2.538,2.037,2.97c3.878,1.588,4.114,6.768,8.914,7.216c0.168,0.015,0.864,0.096,0.975-0.515
					c0.113-0.625-0.651-0.873-0.799-0.946C38.273,36.26,37.756,35.508,36.842,35.134z M36.798,35.637
					c0.122-0.146,0.493-0.34,0.339-0.154C37.015,35.628,36.643,35.823,36.798,35.637z"/>
			</g>
			<g>
				<polygon fill="#82888C" points="33.247,39.137 33.287,38.012 38.83,38.215 38.627,32.671 39.752,32.631 39.998,39.383 				"/>
			</g>
		</g>
	</g>
	<g>
		<g>
			<g>
				<path fill-rule="evenodd" clip-rule="evenodd" fill="#82888C" d="M4.155,6.63c0.91,0.373,0.884,1.684,1.492,2.322
					c1.972,2.07,4.287,3.633,5.813,5.767c0.109,0.153,0.278,0.417,0.441,0.523c0.341,0.219,1.129-1.135,1.146-1.42
					c0.114-1.796-0.982-2.538-2.038-2.97C7.132,9.264,6.896,4.083,2.096,3.636C1.927,3.621,1.231,3.54,1.121,4.15
					c-0.113,0.625,0.651,0.873,0.8,0.947C2.725,5.504,3.242,6.256,4.155,6.63z M4.199,6.127C4.077,6.273,3.706,6.466,3.861,6.281
					C3.982,6.136,4.354,5.941,4.199,6.127z"/>
			</g>
			<g>
				<polygon fill="#82888C" points="7.751,2.627 7.711,3.752 2.168,3.549 2.37,9.093 1.245,9.133 1,2.381 				"/>
			</g>
		</g>
	</g>
	<g>
		<g>
			<g>
				<path fill-rule="evenodd" clip-rule="evenodd" fill="#82888C" d="M4.506,35.58c0.449-0.878,1.757-0.744,2.445-1.3
					c2.235-1.8,3.993-3.984,6.252-5.333c0.163-0.097,0.441-0.243,0.561-0.398c0.247-0.322-1.038-1.22-1.321-1.26
					c-1.784-0.26-2.618,0.774-3.139,1.793c-1.915,3.741-7.108,3.556-7.963,8.311c-0.029,0.167-0.169,0.855,0.431,1.016
					c0.614,0.163,0.927-0.579,1.013-0.721C3.26,36.917,4.055,36.461,4.506,35.58z M4.007,35.496c0.136,0.134,0.297,0.52,0.125,0.35
					C3.998,35.712,3.835,35.325,4.007,35.496z"/>
			</g>
			<g>
				<polygon fill="#82888C" points="0.804,31.674 1.922,31.807 1.259,37.315 6.801,37.574 6.748,38.698 -0.001,38.381 				"/>
			</g>
		</g>
	</g>
</g>
</svg>
