<?xml version="1.0" encoding="utf-8"?>
<!-- Generator: Adobe Illustrator 16.0.0, SVG Export Plug-In . SVG Version: 6.00 Build 0)  -->
<!DOCTYPE svg PUBLIC "-//W3C//DTD SVG 1.1//EN" "http://www.w3.org/Graphics/SVG/1.1/DTD/svg11.dtd">
<svg version="1.1" id="Layer_1" xmlns="http://www.w3.org/2000/svg" xmlns:xlink="http://www.w3.org/1999/xlink" x="0px" y="0px"
	 width="40.333px" height="40.167px" viewBox="0 0 40.333 40.167" enable-background="new 0 0 40.333 40.167" xml:space="preserve">
<g>
	<g>
		<g>
			<path fill="#959A9D" d="M38.424,0.639c-8.75,0.253-17.521-0.377-26.02-0.391c-3.794,0-7.566,0-11.225,0.001H0.272l0.003,0.905
				c0.043,13.058,0.085,25.737,0.125,38l0.003,0.78l0.776-0.001c10.261-0.021,20.137-0.006,29.788,0.105
				c1.794,0.021,4.744,0.064,6.584,0.037c3.82-0.058-0.041-1.066-1.869-1.209c-11.479-0.9-24.024-0.734-34.172-0.439l-0.331,0.01
				l0.717,0.717c-0.361-12.719-0.329-25.398-0.211-38L1.18,1.659c12.753,0.119,25.432,0.324,38,0.297l-0.803-0.803
				c0.023,11.341,0.237,22.593,0.877,33.729c0.072,1.254,0.361,6.554,0.701,3.144c0.349-3.491,0.104-10.401,0.069-11.914
				c-0.183-8.025-0.083-16.422-0.31-24.959L39.7,0.603l-0.52,0.015C38.933,0.625,38.679,0.631,38.424,0.639z M39.437,3.531
				c0.127-0.163,0.394,1.051,0.231,1.257C39.543,4.951,39.276,3.737,39.437,3.531z"/>
		</g>
	</g>
</g>
<g>
	<polygon fill="#83888C" points="15.146,13.522 27.146,20.153 15.146,26.785 	"/>
	<g>
		<g>
			<path fill="#83888C" d="M14.632,23.895c0.104,0.965,0.059,1.931-0.032,2.89l-0.082,0.867l0.893-0.389
				c1.265-0.551,2.565-1.018,3.74-1.656c2.883-1.568,5.676-3.18,8.393-4.734l1.302-0.744l-1.302-0.694
				c-3.498-1.867-6.875-3.688-10.045-5.623c-0.41-0.25-1.08-0.672-1.524-0.886c-0.923-0.444-0.506,0.94-0.147,1.301
				c2.253,2.274,5.273,3.751,7.792,4.808c1.123,0.471,2.221,0.985,3.299,1.53v-0.823c-3.945,2.375-8.125,4.276-12.146,6.367
				l1.145,0.676c0.103-4.084,0.008-8.127-0.846-12.119C15,14.33,14.71,12.911,14.37,13.824c-0.348,0.935-0.104,2.784-0.069,3.188
				C14.488,19.225,14.377,21.542,14.632,23.895z M14.89,23.057c-0.126,0.043-0.393-0.281-0.232-0.337
				C14.783,22.677,15.05,23.001,14.89,23.057z"/>
		</g>
	</g>
</g>
</svg>
