<?xml version="1.0" encoding="utf-8"?>
<!-- Generator: Adobe Illustrator 16.0.0, SVG Export Plug-In . SVG Version: 6.00 Build 0)  -->
<!DOCTYPE svg PUBLIC "-//W3C//DTD SVG 1.1//EN" "http://www.w3.org/Graphics/SVG/1.1/DTD/svg11.dtd">
<svg version="1.1" id="Layer_1" xmlns="http://www.w3.org/2000/svg" xmlns:xlink="http://www.w3.org/1999/xlink" x="0px" y="0px"
	 width="2.333px" height="350.5px" viewBox="0 0 2.333 350.5" enable-background="new 0 0 2.333 350.5" xml:space="preserve">
<g>
	<g>
		<g>
			<path fill="#959A9D" d="M1.681,260.763c-0.253-20.147,0.378-40.345,0.392-59.915C2.12,137.335,1.764,76.394,2.051,18.91
				C2.072,14.78,2.116,7.984,2.088,3.749C2.032-5.05,1.022,3.844,0.879,8.054c-0.9,26.43-0.733,55.317-0.439,78.684
				c1.08,85.878-1.251,170.978,0.801,253.433c0.072,2.886,0.362,15.088,0.702,7.234c0.349-8.039,0.104-23.949,0.069-27.432
				C1.825,300.942,1.936,281.004,1.681,260.763z M1.423,267.976c0.126-0.374,0.393,2.42,0.232,2.894
				C1.53,271.245,1.262,268.45,1.423,267.976z"/>
		</g>
	</g>
</g>
</svg>
