<?xml version="1.0" encoding="utf-8"?>
<!-- Generator: Adobe Illustrator 16.0.0, SVG Export Plug-In . SVG Version: 6.00 Build 0)  -->
<!DOCTYPE svg PUBLIC "-//W3C//DTD SVG 1.1//EN" "http://www.w3.org/Graphics/SVG/1.1/DTD/svg11.dtd">
<svg version="1.1" id="Layer_1" xmlns="http://www.w3.org/2000/svg" xmlns:xlink="http://www.w3.org/1999/xlink" x="0px" y="0px"
	 width="644.125px" height="542.285px" viewBox="0 0 644.125 542.285" enable-background="new 0 0 644.125 542.285"
	 xml:space="preserve">
<g>
	<g>
		<g>
			<path fill="#959A9D" d="M344.156,481.574c-80.486,0.381-161.161-0.564-239.343-0.586c-34.882,0-69.569,0.002-103.251,0.002H0.205
				v1.355c0.008,20.064,0.015,39.596,0.021,58.779v1.334h1.334c196.942-0.092,385.078-0.344,564.755-0.008
				c16.499,0.016,43.646,0.041,60.564,0.059c35.146-0.088-0.383-1.602-17.198-1.814c-105.579-1.352-220.976-1.102-314.318-0.66
				c-98.265,0.465-196.274,0.508-293.803,0.408l0.684,0.682c0.024-19.621,0.051-39.225,0.075-58.777l-0.759,0.76
				c216.426,0.328,430.488,1.1,640.293-0.697l-0.063-0.063c0.058,6.533,0.115,13.023,0.174,19.51
				c0.107,11.523,0.543,60.271,1.054,28.9c0.208-12.836,0.275-30.691,0.276-48.41V480.9l-1.441,0.006
				c-26.576,0.074-52.821,0.148-61.174,0.172C504.662,481.359,425.018,481.193,344.156,481.574z M372.973,481.962
				c-1.496-0.189,9.664-0.59,11.56-0.35C386.028,481.802,374.867,482.203,372.973,481.962z"/>
		</g>
	</g>
</g>
<g>
	<g>
		<g>
			<path fill="#959A9D" d="M550.462,1.353c-128.951,0.38-258.203-0.566-383.459-0.586c-55.798,0-111.286,0-165.422,0.001H0.223
				v1.357c0.057,163.969,0.113,323.925,0.167,480v1.191h1.19c178.052,0.047,350.826,0.092,518.979,0.135
				c26.435,0.016,69.925,0.043,97.031,0.059c56.309-0.086-0.61-1.602-27.554-1.814c-169.15-1.352-354.029-1.1-503.576-0.658
				c-28.329,0.07-56.645,0.141-84.88,0.211l0.879,0.879c-0.329-160.617-0.271-320.748-0.12-480L1.581,2.884
				C216.622,3.088,430.205,3.462,641.58,3.289l-1.162-1.164c0.113,140.076,0.47,279.16,1.273,417.087
				c0.108,18.463,0.544,96.563,1.054,46.303c0.521-51.454,0.156-153.279,0.104-175.566c-0.1-92.951-0.2-189.283-0.305-287.823
				l-0.001-0.966l-0.964,0.002C611.712,1.224,581.142,1.288,550.462,1.353z M596.627,1.74c-2.396-0.19,15.481-0.589,18.52-0.349
				C617.543,1.58,599.662,1.98,596.627,1.74z"/>
		</g>
	</g>
</g>
</svg>
